<svg xmlns="http://www.w3.org/2000/svg" viewBox="0 0 512 512">
  <defs>
    <linearGradient id="g" x1="70" y1="54" x2="450" y2="466" gradientUnits="userSpaceOnUse">
      <stop stop-color="#6659e8"/><stop offset="1" stop-color="#20b6c8"/>
    </linearGradient>
    <linearGradient id="p" x1="170" y1="128" x2="344" y2="398" gradientUnits="userSpaceOnUse">
      <stop stop-color="#fff"/><stop offset="1" stop-color="#e9fbff"/>
    </linearGradient>
  </defs>
  <rect width="512" height="512" rx="112" fill="url(#g)"/>
  <circle cx="407" cy="104" r="112" fill="#fff" opacity=".08"/>
  <circle cx="94" cy="448" r="142" fill="#3034bd" opacity=".12"/>
  <path d="M151 105h153l76 76v210c0 18-15 33-33 33H151c-18 0-33-15-33-33V138c0-18 15-33 33-33Z" fill="url(#p)"/>
  <path d="M304 105v58c0 18 15 33 33 33h43" fill="#c9f2f5"/>
  <path d="M304 105l76 76v15h-43c-18 0-33-15-33-33v-58Z" fill="#bfecef"/>
  <path d="M176 239h148M176 290h148M176 341h94" fill="none" stroke="#565bd1" stroke-width="22" stroke-linecap="round"/>
</svg>
